<?xml version="1.0" encoding="utf-8"?><svg width="auto" height="5870" style="overflow:visible " version="1.1" xmlns="http://www.w3.org/2000/svg"><rect x="20" y="20" width="200" height="40" style="fill:white;stroke:black;stroke-width:1" /><text x="30" y="30" font-size="10" style="fill:blue">rutas</text><text x="30" y="40" font-size="8" style="fill:black">xmlns:xsi: http://www.w3.org/2001/XMLSchema-instance</text><text x="30" y="50" font-size="8" style="fill:black">xsi:noNamespaceSchemaLocation: rutas.xsd</text><rect x="240" y="20" width="200" height="40" style="fill:white;stroke:black;stroke-width:1" /><text x="250" y="30" font-size="10" style="fill:blue">ruta</text><path d="M220 40 C240 40 220 40 240 40" style="fill:transparent;stroke:black" /><text x="250" y="40" font-size="8" style="fill:black">nombre: Ruta del Alba</text><text x="250" y="50" font-size="8" style="fill:black">tipo: Senderismo</text><text x="250" y="60" font-size="8" style="fill:black">dificultad: facil</text><rect x="460" y="20" width="200" height="40" style="fill:white;stroke:black;stroke-width:1" /><text x="470" y="30" font-size="10" style="fill:blue">tiempoDuracion</text><path d="M440 40 C460 40 440 40 460 40" style="fill:transparent;stroke:black" /><rect x="526" y="20" width="137" height="40" style="fill:green;stroke:black;stroke-width:1" /><text x="536" y="30" font-size="8" style="fill:white">PT5H</text><rect x="460" y="70" width="200" height="40" style="fill:white;stroke:black;stroke-width:1" /><text x="470" y="80" font-size="10" style="fill:blue">agencia</text><path d="M440 40 C460 40 440 90 460 90" style="fill:transparent;stroke:black" /><rect x="526" y="70" width="137" height="40" style="fill:green;stroke:black;stroke-width:1" /><text x="536" y="80" font-size="8" style="fill:white">Sin agencia</text><rect x="460" y="120" width="200" height="40" style="fill:white;stroke:black;stroke-width:1" /><text x="470" y="130" font-size="10" style="fill:blue">descripcion</text><path d="M440 40 C460 40 440 140 460 140" style="fill:transparent;stroke:black" /><rect x="526" y="120" width="137" height="40" style="fill:green;stroke:black;stroke-width:1" /><text x="536" y="130" font-size="8" style="fill:white">
      Se trata de una ruta lineal, que se inicia en Soto de Agues (Sobrescobio) y recorre el fondo de valle del rio Alba internadose en las foces hasta llegar a la Cruz de los Rios, punto de confluencia de varios arroyos que originan el rio Alba. El regreso se realiza por el mismo sendero.
    </text><rect x="460" y="170" width="200" height="40" style="fill:white;stroke:black;stroke-width:1" /><text x="470" y="180" font-size="10" style="fill:blue">personasAdecuadas</text><path d="M440 40 C460 40 440 190 460 190" style="fill:transparent;stroke:black" /><rect x="526" y="170" width="137" height="40" style="fill:green;stroke:black;stroke-width:1" /><text x="536" y="180" font-size="8" style="fill:white">Todos los públicos</text><rect x="460" y="220" width="200" height="40" style="fill:white;stroke:black;stroke-width:1" /><text x="470" y="230" font-size="10" style="fill:blue">lugarInicio</text><path d="M440 40 C460 40 440 240 460 240" style="fill:transparent;stroke:black" /><rect x="526" y="220" width="137" height="40" style="fill:green;stroke:black;stroke-width:1" /><text x="536" y="230" font-size="8" style="fill:white">Soto de Agues</text><rect x="460" y="270" width="200" height="40" style="fill:white;stroke:black;stroke-width:1" /><text x="470" y="280" font-size="10" style="fill:blue">direccionInicio</text><path d="M440 40 C460 40 440 290 460 290" style="fill:transparent;stroke:black" /><rect x="526" y="270" width="137" height="40" style="fill:green;stroke:black;stroke-width:1" /><text x="536" y="280" font-size="8" style="fill:white">Casa del agua</text><rect x="460" y="320" width="200" height="40" style="fill:white;stroke:black;stroke-width:1" /><text x="470" y="330" font-size="10" style="fill:blue">coordenadasInicio</text><path d="M440 40 C460 40 440 340 460 340" style="fill:transparent;stroke:black" /><rect x="526" y="320" width="137" height="40" style="fill:green;stroke:black;stroke-width:1" /><text x="536" y="330" font-size="8" style="fill:white">43.2021,-5.4680, 430.0</text><rect x="460" y="370" width="200" height="40" style="fill:white;stroke:black;stroke-width:1" /><text x="470" y="380" font-size="10" style="fill:blue">referencias</text><path d="M440 40 C460 40 440 390 460 390" style="fill:transparent;stroke:black" /><rect x="680" y="370" width="200" height="40" style="fill:white;stroke:black;stroke-width:1" /><text x="690" y="380" font-size="10" style="fill:blue">referencia</text><path d="M660 390 C680 390 660 390 680 390" style="fill:transparent;stroke:black" /><rect x="746" y="370" width="137" height="40" style="fill:green;stroke:black;stroke-width:1" /><text x="756" y="380" font-size="8" style="fill:white">http://www.turismoasturias.es/descubre/naturaleza/rutas/senderismo/ruta-del-alba#</text><rect x="680" y="420" width="200" height="40" style="fill:white;stroke:black;stroke-width:1" /><text x="690" y="430" font-size="10" style="fill:blue">referencia</text><path d="M660 390 C680 390 660 440 680 440" style="fill:transparent;stroke:black" /><rect x="746" y="420" width="137" height="40" style="fill:green;stroke:black;stroke-width:1" /><text x="756" y="430" font-size="8" style="fill:white">http://www.desdeasturias.com/ruta-del-alba/</text><rect x="680" y="470" width="200" height="40" style="fill:white;stroke:black;stroke-width:1" /><text x="690" y="480" font-size="10" style="fill:blue">referencia</text><path d="M660 390 C680 390 660 490 680 490" style="fill:transparent;stroke:black" /><rect x="746" y="470" width="137" height="40" style="fill:green;stroke:black;stroke-width:1" /><text x="756" y="480" font-size="8" style="fill:white">http://www.asturiasparadisfrutar.es/2010/07/ruta-del-alba.html</text><rect x="460" y="570" width="200" height="40" style="fill:white;stroke:black;stroke-width:1" /><text x="470" y="580" font-size="10" style="fill:blue">recomendacion</text><path d="M440 40 C460 40 440 590 460 590" style="fill:transparent;stroke:black" /><rect x="526" y="570" width="137" height="40" style="fill:green;stroke:black;stroke-width:1" /><text x="536" y="580" font-size="8" style="fill:white">8</text><rect x="460" y="620" width="200" height="40" style="fill:white;stroke:black;stroke-width:1" /><text x="470" y="630" font-size="10" style="fill:blue">hitos</text><path d="M440 40 C460 40 440 640 460 640" style="fill:transparent;stroke:black" /><rect x="680" y="620" width="200" height="40" style="fill:white;stroke:black;stroke-width:1" /><text x="690" y="630" font-size="10" style="fill:blue">hito</text><path d="M660 640 C680 640 660 640 680 640" style="fill:transparent;stroke:black" /><text x="690" y="640" font-size="8" style="fill:black">nombre: Puente Precia</text><rect x="900" y="620" width="200" height="40" style="fill:white;stroke:black;stroke-width:1" /><text x="910" y="630" font-size="10" style="fill:blue">descripcionH</text><path d="M880 640 C900 640 880 640 900 640" style="fill:transparent;stroke:black" /><rect x="966" y="620" width="137" height="40" style="fill:green;stroke:black;stroke-width:1" /><text x="976" y="630" font-size="8" style="fill:white">Es un viejo puente de madera por el cual hay que pasar durante la ruta al cual la hace mas bonita si cabe.</text><rect x="900" y="670" width="200" height="40" style="fill:white;stroke:black;stroke-width:1" /><text x="910" y="680" font-size="10" style="fill:blue">coordenadas</text><path d="M880 640 C900 640 880 690 900 690" style="fill:transparent;stroke:black" /><rect x="966" y="670" width="137" height="40" style="fill:green;stroke:black;stroke-width:1" /><text x="976" y="680" font-size="8" style="fill:white">43.16802968265721, -5.476582991674388, 638.0</text><rect x="900" y="720" width="200" height="40" style="fill:white;stroke:black;stroke-width:1" /><text x="910" y="730" font-size="10" style="fill:blue">distanciaRecorrida</text><path d="M880 640 C900 640 880 740 900 740" style="fill:transparent;stroke:black" /><text x="910" y="740" font-size="8" style="fill:black">unidad: metros</text><rect x="966" y="720" width="137" height="40" style="fill:green;stroke:black;stroke-width:1" /><text x="976" y="730" font-size="8" style="fill:white">2000</text><rect x="900" y="770" width="200" height="40" style="fill:white;stroke:black;stroke-width:1" /><text x="910" y="780" font-size="10" style="fill:blue">fotos</text><path d="M880 640 C900 640 880 790 900 790" style="fill:transparent;stroke:black" /><rect x="1120" y="770" width="200" height="40" style="fill:white;stroke:black;stroke-width:1" /><text x="1130" y="780" font-size="10" style="fill:blue">foto</text><path d="M1100 790 C1120 790 1100 790 1120 790" style="fill:transparent;stroke:black" /><text x="1130" y="790" font-size="8" style="fill:black">src: multimedia/puenteprecia.jpg</text><rect x="680" y="920" width="200" height="40" style="fill:white;stroke:black;stroke-width:1" /><text x="690" y="930" font-size="10" style="fill:blue">hito</text><path d="M660 640 C680 640 660 940 680 940" style="fill:transparent;stroke:black" /><text x="690" y="940" font-size="8" style="fill:black">nombre: Foces de Llaimo</text><rect x="900" y="920" width="200" height="40" style="fill:white;stroke:black;stroke-width:1" /><text x="910" y="930" font-size="10" style="fill:blue">descripcionH</text><path d="M880 940 C900 940 880 940 900 940" style="fill:transparent;stroke:black" /><rect x="966" y="920" width="137" height="40" style="fill:green;stroke:black;stroke-width:1" /><text x="976" y="930" font-size="8" style="fill:white"> A partir de aquí el río Alba se hace protagonista de las ruta, obsequiándonos con sucesivas cascadas de formas bien diversas.</text><rect x="900" y="970" width="200" height="40" style="fill:white;stroke:black;stroke-width:1" /><text x="910" y="980" font-size="10" style="fill:blue">coordenadas</text><path d="M880 940 C900 940 880 990 900 990" style="fill:transparent;stroke:black" /><rect x="966" y="970" width="137" height="40" style="fill:green;stroke:black;stroke-width:1" /><text x="976" y="980" font-size="8" style="fill:white">43.159814, -5.477888, 760.0 </text><rect x="900" y="1020" width="200" height="40" style="fill:white;stroke:black;stroke-width:1" /><text x="910" y="1030" font-size="10" style="fill:blue">distanciaRecorrida</text><path d="M880 940 C900 940 880 1040 900 1040" style="fill:transparent;stroke:black" /><text x="910" y="1040" font-size="8" style="fill:black">unidad: metros</text><rect x="966" y="1020" width="137" height="40" style="fill:green;stroke:black;stroke-width:1" /><text x="976" y="1030" font-size="8" style="fill:white">2500</text><rect x="900" y="1070" width="200" height="40" style="fill:white;stroke:black;stroke-width:1" /><text x="910" y="1080" font-size="10" style="fill:blue">fotos</text><path d="M880 940 C900 940 880 1090 900 1090" style="fill:transparent;stroke:black" /><rect x="1120" y="1070" width="200" height="40" style="fill:white;stroke:black;stroke-width:1" /><text x="1130" y="1080" font-size="10" style="fill:blue">foto</text><path d="M1100 1090 C1120 1090 1100 1090 1120 1090" style="fill:transparent;stroke:black" /><text x="1130" y="1090" font-size="8" style="fill:black">src: multimedia/foces.jpg</text><rect x="900" y="1170" width="200" height="40" style="fill:white;stroke:black;stroke-width:1" /><text x="910" y="1180" font-size="10" style="fill:blue">videos</text><path d="M880 940 C900 940 880 1190 900 1190" style="fill:transparent;stroke:black" /><rect x="1120" y="1170" width="200" height="40" style="fill:white;stroke:black;stroke-width:1" /><text x="1130" y="1180" font-size="10" style="fill:blue">video</text><path d="M1100 1190 C1120 1190 1100 1190 1120 1190" style="fill:transparent;stroke:black" /><text x="1130" y="1190" font-size="8" style="fill:black">src: multimedia/rutadelalba.mp4</text><rect x="680" y="1320" width="200" height="40" style="fill:white;stroke:black;stroke-width:1" /><text x="690" y="1330" font-size="10" style="fill:blue">hito</text><path d="M660 640 C680 640 660 1340 680 1340" style="fill:transparent;stroke:black" /><text x="690" y="1340" font-size="8" style="fill:black">nombre: Cruz de los ríos</text><rect x="900" y="1320" width="200" height="40" style="fill:white;stroke:black;stroke-width:1" /><text x="910" y="1330" font-size="10" style="fill:blue">descripcionH</text><path d="M880 1340 C900 1340 880 1340 900 1340" style="fill:transparent;stroke:black" /><rect x="966" y="1320" width="137" height="40" style="fill:green;stroke:black;stroke-width:1" /><text x="976" y="1330" font-size="8" style="fill:white">Cruz de los Ríos, donde junto a dos árboles centenarios se halla un pequeño refugio que indica el final de la ruta. El paisaje se abre de repente a un paraje de praderas dominado por la frondosidad de los hayedos de Llaímo y las alturas de El Retriñón (1.862 m), vértice de los concejos de Aller, Caso y Sobrescobio.</text><rect x="900" y="1370" width="200" height="40" style="fill:white;stroke:black;stroke-width:1" /><text x="910" y="1380" font-size="10" style="fill:blue">coordenadas</text><path d="M880 1340 C900 1340 880 1390 900 1390" style="fill:transparent;stroke:black" /><rect x="966" y="1370" width="137" height="40" style="fill:green;stroke:black;stroke-width:1" /><text x="976" y="1380" font-size="8" style="fill:white">43.154587, -5.486965, 800</text><rect x="900" y="1420" width="200" height="40" style="fill:white;stroke:black;stroke-width:1" /><text x="910" y="1430" font-size="10" style="fill:blue">distanciaRecorrida</text><path d="M880 1340 C900 1340 880 1440 900 1440" style="fill:transparent;stroke:black" /><text x="910" y="1440" font-size="8" style="fill:black">unidad: metros</text><rect x="966" y="1420" width="137" height="40" style="fill:green;stroke:black;stroke-width:1" /><text x="976" y="1430" font-size="8" style="fill:white">3000</text><rect x="900" y="1470" width="200" height="40" style="fill:white;stroke:black;stroke-width:1" /><text x="910" y="1480" font-size="10" style="fill:blue">fotos</text><path d="M880 1340 C900 1340 880 1490 900 1490" style="fill:transparent;stroke:black" /><rect x="1120" y="1470" width="200" height="40" style="fill:white;stroke:black;stroke-width:1" /><text x="1130" y="1480" font-size="10" style="fill:blue">foto</text><path d="M1100 1490 C1120 1490 1100 1490 1120 1490" style="fill:transparent;stroke:black" /><text x="1130" y="1490" font-size="8" style="fill:black">src: multimedia/cruzderios.jpg</text><rect x="240" y="1720" width="200" height="40" style="fill:white;stroke:black;stroke-width:1" /><text x="250" y="1730" font-size="10" style="fill:blue">ruta</text><path d="M220 40 C240 40 220 1740 240 1740" style="fill:transparent;stroke:black" /><text x="250" y="1740" font-size="8" style="fill:black">nombre: Monumentos Oviedo</text><text x="250" y="1750" font-size="8" style="fill:black">tipo: Monumentos</text><text x="250" y="1760" font-size="8" style="fill:black">dificultad: facil</text><rect x="460" y="1720" width="200" height="40" style="fill:white;stroke:black;stroke-width:1" /><text x="470" y="1730" font-size="10" style="fill:blue">tiempoDuracion</text><path d="M440 1740 C460 1740 440 1740 460 1740" style="fill:transparent;stroke:black" /><rect x="526" y="1720" width="137" height="40" style="fill:green;stroke:black;stroke-width:1" /><text x="536" y="1730" font-size="8" style="fill:white">PT3H</text><rect x="460" y="1770" width="200" height="40" style="fill:white;stroke:black;stroke-width:1" /><text x="470" y="1780" font-size="10" style="fill:blue">agencia</text><path d="M440 1740 C460 1740 440 1790 460 1790" style="fill:transparent;stroke:black" /><rect x="526" y="1770" width="137" height="40" style="fill:green;stroke:black;stroke-width:1" /><text x="536" y="1780" font-size="8" style="fill:white">Sin agencia</text><rect x="460" y="1820" width="200" height="40" style="fill:white;stroke:black;stroke-width:1" /><text x="470" y="1830" font-size="10" style="fill:blue">diaInicio</text><path d="M440 1740 C460 1740 440 1840 460 1840" style="fill:transparent;stroke:black" /><rect x="526" y="1820" width="137" height="40" style="fill:green;stroke:black;stroke-width:1" /><text x="536" y="1830" font-size="8" style="fill:white">2020-10-15</text><rect x="460" y="1870" width="200" height="40" style="fill:white;stroke:black;stroke-width:1" /><text x="470" y="1880" font-size="10" style="fill:blue">horaInicio</text><path d="M440 1740 C460 1740 440 1890 460 1890" style="fill:transparent;stroke:black" /><rect x="526" y="1870" width="137" height="40" style="fill:green;stroke:black;stroke-width:1" /><text x="536" y="1880" font-size="8" style="fill:white">10:00</text><rect x="460" y="1920" width="200" height="40" style="fill:white;stroke:black;stroke-width:1" /><text x="470" y="1930" font-size="10" style="fill:blue">descripcion</text><path d="M440 1740 C460 1740 440 1940 460 1940" style="fill:transparent;stroke:black" /><rect x="526" y="1920" width="137" height="40" style="fill:green;stroke:black;stroke-width:1" /><text x="536" y="1930" font-size="8" style="fill:white">
      Ruta visitando algunos de los monumentos más memorables de la ciudad de Oviedo
    </text><rect x="460" y="1970" width="200" height="40" style="fill:white;stroke:black;stroke-width:1" /><text x="470" y="1980" font-size="10" style="fill:blue">personasAdecuadas</text><path d="M440 1740 C460 1740 440 1990 460 1990" style="fill:transparent;stroke:black" /><rect x="526" y="1970" width="137" height="40" style="fill:green;stroke:black;stroke-width:1" /><text x="536" y="1980" font-size="8" style="fill:white">Todos los públicos</text><rect x="460" y="2020" width="200" height="40" style="fill:white;stroke:black;stroke-width:1" /><text x="470" y="2030" font-size="10" style="fill:blue">lugarInicio</text><path d="M440 1740 C460 1740 440 2040 460 2040" style="fill:transparent;stroke:black" /><rect x="526" y="2020" width="137" height="40" style="fill:green;stroke:black;stroke-width:1" /><text x="536" y="2030" font-size="8" style="fill:white">Oviedo</text><rect x="460" y="2070" width="200" height="40" style="fill:white;stroke:black;stroke-width:1" /><text x="470" y="2080" font-size="10" style="fill:blue">direccionInicio</text><path d="M440 1740 C460 1740 440 2090 460 2090" style="fill:transparent;stroke:black" /><rect x="526" y="2070" width="137" height="40" style="fill:green;stroke:black;stroke-width:1" /><text x="536" y="2080" font-size="8" style="fill:white">Plaza de la Escandalera</text><rect x="460" y="2120" width="200" height="40" style="fill:white;stroke:black;stroke-width:1" /><text x="470" y="2130" font-size="10" style="fill:blue">coordenadasInicio</text><path d="M440 1740 C460 1740 440 2140 460 2140" style="fill:transparent;stroke:black" /><rect x="526" y="2120" width="137" height="40" style="fill:green;stroke:black;stroke-width:1" /><text x="536" y="2130" font-size="8" style="fill:white">43.214368, 5.505233, 234.0</text><rect x="460" y="2170" width="200" height="40" style="fill:white;stroke:black;stroke-width:1" /><text x="470" y="2180" font-size="10" style="fill:blue">referencias</text><path d="M440 1740 C460 1740 440 2190 460 2190" style="fill:transparent;stroke:black" /><rect x="680" y="2170" width="200" height="40" style="fill:white;stroke:black;stroke-width:1" /><text x="690" y="2180" font-size="10" style="fill:blue">referencia</text><path d="M660 2190 C680 2190 660 2190 680 2190" style="fill:transparent;stroke:black" /><rect x="746" y="2170" width="137" height="40" style="fill:green;stroke:black;stroke-width:1" /><text x="756" y="2180" font-size="8" style="fill:white">https://www.perderseporelmundo.com/que-ver-en-oviedo-un-dia/</text><rect x="680" y="2220" width="200" height="40" style="fill:white;stroke:black;stroke-width:1" /><text x="690" y="2230" font-size="10" style="fill:blue">referencia</text><path d="M660 2190 C680 2190 660 2240 680 2240" style="fill:transparent;stroke:black" /><rect x="746" y="2220" width="137" height="40" style="fill:green;stroke:black;stroke-width:1" /><text x="756" y="2230" font-size="8" style="fill:white">https://www.turismoasturias.es/descubre/cultura/patrimonio-religioso/catedral-de-san-salvador</text><rect x="680" y="2270" width="200" height="40" style="fill:white;stroke:black;stroke-width:1" /><text x="690" y="2280" font-size="10" style="fill:blue">referencia</text><path d="M660 2190 C680 2190 660 2290 680 2290" style="fill:transparent;stroke:black" /><rect x="746" y="2270" width="137" height="40" style="fill:green;stroke:black;stroke-width:1" /><text x="756" y="2280" font-size="8" style="fill:white">http://www.principadodeasturias.com/index.php?cat=monumentos&amp;id=Oviedo&amp;ListaAreas=</text><rect x="460" y="2370" width="200" height="40" style="fill:white;stroke:black;stroke-width:1" /><text x="470" y="2380" font-size="10" style="fill:blue">recomendacion</text><path d="M440 1740 C460 1740 440 2390 460 2390" style="fill:transparent;stroke:black" /><rect x="526" y="2370" width="137" height="40" style="fill:green;stroke:black;stroke-width:1" /><text x="536" y="2380" font-size="8" style="fill:white">10</text><rect x="460" y="2420" width="200" height="40" style="fill:white;stroke:black;stroke-width:1" /><text x="470" y="2430" font-size="10" style="fill:blue">hitos</text><path d="M440 1740 C460 1740 440 2440 460 2440" style="fill:transparent;stroke:black" /><rect x="680" y="2420" width="200" height="40" style="fill:white;stroke:black;stroke-width:1" /><text x="690" y="2430" font-size="10" style="fill:blue">hito</text><path d="M660 2440 C680 2440 660 2440 680 2440" style="fill:transparent;stroke:black" /><text x="690" y="2440" font-size="8" style="fill:black">nombre: Catedral de Oviedo</text><rect x="900" y="2420" width="200" height="40" style="fill:white;stroke:black;stroke-width:1" /><text x="910" y="2430" font-size="10" style="fill:blue">descripcionH</text><path d="M880 2440 C900 2440 880 2440 900 2440" style="fill:transparent;stroke:black" /><rect x="966" y="2420" width="137" height="40" style="fill:green;stroke:black;stroke-width:1" /><text x="976" y="2430" font-size="8" style="fill:white">La Santa Iglesia Basílica Catedral de San Salvador de Oviedo es una catedral de estilo gótico que se encuentra en la ciudad de Oviedo. Es conocida también como Sancta Ovetensis, refiriéndose a la calidad y cantidad de las reliquias que contiene.</text><rect x="900" y="2470" width="200" height="40" style="fill:white;stroke:black;stroke-width:1" /><text x="910" y="2480" font-size="10" style="fill:blue">coordenadas</text><path d="M880 2440 C900 2440 880 2490 900 2490" style="fill:transparent;stroke:black" /><rect x="966" y="2470" width="137" height="40" style="fill:green;stroke:black;stroke-width:1" /><text x="976" y="2480" font-size="8" style="fill:white"> 43.36257,-5.84325, 243m</text><rect x="900" y="2520" width="200" height="40" style="fill:white;stroke:black;stroke-width:1" /><text x="910" y="2530" font-size="10" style="fill:blue">distanciaRecorrida</text><path d="M880 2440 C900 2440 880 2540 900 2540" style="fill:transparent;stroke:black" /><text x="910" y="2540" font-size="8" style="fill:black">unidad: metros</text><rect x="966" y="2520" width="137" height="40" style="fill:green;stroke:black;stroke-width:1" /><text x="976" y="2530" font-size="8" style="fill:white">350</text><rect x="900" y="2570" width="200" height="40" style="fill:white;stroke:black;stroke-width:1" /><text x="910" y="2580" font-size="10" style="fill:blue">fotos</text><path d="M880 2440 C900 2440 880 2590 900 2590" style="fill:transparent;stroke:black" /><rect x="1120" y="2570" width="200" height="40" style="fill:white;stroke:black;stroke-width:1" /><text x="1130" y="2580" font-size="10" style="fill:blue">foto</text><path d="M1100 2590 C1120 2590 1100 2590 1120 2590" style="fill:transparent;stroke:black" /><text x="1130" y="2590" font-size="8" style="fill:black">src: multimedia/catedral.jpg</text><rect x="680" y="2720" width="200" height="40" style="fill:white;stroke:black;stroke-width:1" /><text x="690" y="2730" font-size="10" style="fill:blue">hito</text><path d="M660 2440 C680 2440 660 2740 680 2740" style="fill:transparent;stroke:black" /><text x="690" y="2740" font-size="8" style="fill:black">nombre: Plaza del Fontán</text><rect x="900" y="2720" width="200" height="40" style="fill:white;stroke:black;stroke-width:1" /><text x="910" y="2730" font-size="10" style="fill:blue">descripcionH</text><path d="M880 2740 C900 2740 880 2740 900 2740" style="fill:transparent;stroke:black" /><rect x="966" y="2720" width="137" height="40" style="fill:green;stroke:black;stroke-width:1" /><text x="976" y="2730" font-size="8" style="fill:white"> La plaza del fontán es posiblemente la plaza más conocida de la ciudad y para nosotros, uno de los lugares imprescindibles que ver en Oviedo. Su origen estuvo en una laguna natural que tuvo que ser desecada en el siglo XVI por cuestiones de salubridad. Del manantial o fontan que llenaba la laguna viene el nombre de la plaza. Tras la desaparición de la laguna, se construyó una fuente con un lavadero y a lo largo de su historia, hubo un colegio jesuita y fue utilizada como corral de comedias. </text><rect x="900" y="2770" width="200" height="40" style="fill:white;stroke:black;stroke-width:1" /><text x="910" y="2780" font-size="10" style="fill:blue">coordenadas</text><path d="M880 2740 C900 2740 880 2790 900 2790" style="fill:transparent;stroke:black" /><rect x="966" y="2770" width="137" height="40" style="fill:green;stroke:black;stroke-width:1" /><text x="976" y="2780" font-size="8" style="fill:white">43.359749, -5.845851, 230.0</text><rect x="900" y="2820" width="200" height="40" style="fill:white;stroke:black;stroke-width:1" /><text x="910" y="2830" font-size="10" style="fill:blue">distanciaRecorrida</text><path d="M880 2740 C900 2740 880 2840 900 2840" style="fill:transparent;stroke:black" /><text x="910" y="2840" font-size="8" style="fill:black">unidad: metros</text><rect x="966" y="2820" width="137" height="40" style="fill:green;stroke:black;stroke-width:1" /><text x="976" y="2830" font-size="8" style="fill:white">350</text><rect x="900" y="2870" width="200" height="40" style="fill:white;stroke:black;stroke-width:1" /><text x="910" y="2880" font-size="10" style="fill:blue">fotos</text><path d="M880 2740 C900 2740 880 2890 900 2890" style="fill:transparent;stroke:black" /><rect x="1120" y="2870" width="200" height="40" style="fill:white;stroke:black;stroke-width:1" /><text x="1130" y="2880" font-size="10" style="fill:blue">foto</text><path d="M1100 2890 C1120 2890 1100 2890 1120 2890" style="fill:transparent;stroke:black" /><text x="1130" y="2890" font-size="8" style="fill:black">src: multimedia/fontan.jpg</text><rect x="680" y="3020" width="200" height="40" style="fill:white;stroke:black;stroke-width:1" /><text x="690" y="3030" font-size="10" style="fill:blue">hito</text><path d="M660 2440 C680 2440 660 3040 680 3040" style="fill:transparent;stroke:black" /><text x="690" y="3040" font-size="8" style="fill:black">nombre: Plaza de Trascorrales</text><rect x="900" y="3020" width="200" height="40" style="fill:white;stroke:black;stroke-width:1" /><text x="910" y="3030" font-size="10" style="fill:blue">descripcionH</text><path d="M880 3040 C900 3040 880 3040 900 3040" style="fill:transparent;stroke:black" /><rect x="966" y="3020" width="137" height="40" style="fill:green;stroke:black;stroke-width:1" /><text x="976" y="3030" font-size="8" style="fill:white">A pesar de no ser tan popular como la Plaza del Fontán, este es uno de nuestros rincones favoritos que ver en Oviedo en un día, por sus casas de colores y por la escultura de la lechera con su burra, que recuerda que en este lugar se vendía queso y leche.</text><rect x="900" y="3070" width="200" height="40" style="fill:white;stroke:black;stroke-width:1" /><text x="910" y="3080" font-size="10" style="fill:blue">coordenadas</text><path d="M880 3040 C900 3040 880 3090 900 3090" style="fill:transparent;stroke:black" /><rect x="966" y="3070" width="137" height="40" style="fill:green;stroke:black;stroke-width:1" /><text x="976" y="3080" font-size="8" style="fill:white"> 43.360886, -5.843934, 236.0</text><rect x="900" y="3120" width="200" height="40" style="fill:white;stroke:black;stroke-width:1" /><text x="910" y="3130" font-size="10" style="fill:blue">distanciaRecorrida</text><path d="M880 3040 C900 3040 880 3140 900 3140" style="fill:transparent;stroke:black" /><text x="910" y="3140" font-size="8" style="fill:black">unidad: metros</text><rect x="966" y="3120" width="137" height="40" style="fill:green;stroke:black;stroke-width:1" /><text x="976" y="3130" font-size="8" style="fill:white">400</text><rect x="900" y="3170" width="200" height="40" style="fill:white;stroke:black;stroke-width:1" /><text x="910" y="3180" font-size="10" style="fill:blue">fotos</text><path d="M880 3040 C900 3040 880 3190 900 3190" style="fill:transparent;stroke:black" /><rect x="1120" y="3170" width="200" height="40" style="fill:white;stroke:black;stroke-width:1" /><text x="1130" y="3180" font-size="10" style="fill:blue">foto</text><path d="M1100 3190 C1120 3190 1100 3190 1120 3190" style="fill:transparent;stroke:black" /><text x="1130" y="3190" font-size="8" style="fill:black">src: multimedia/trascorrales.jpg</text><rect x="680" y="3320" width="200" height="40" style="fill:white;stroke:black;stroke-width:1" /><text x="690" y="3330" font-size="10" style="fill:blue">hito</text><path d="M660 2440 C680 2440 660 3340 680 3340" style="fill:transparent;stroke:black" /><text x="690" y="3340" font-size="8" style="fill:black">nombre: Santa María del Naranco</text><rect x="900" y="3320" width="200" height="40" style="fill:white;stroke:black;stroke-width:1" /><text x="910" y="3330" font-size="10" style="fill:blue">descripcionH</text><path d="M880 3340 C900 3340 880 3340 900 3340" style="fill:transparent;stroke:black" /><rect x="966" y="3320" width="137" height="40" style="fill:green;stroke:black;stroke-width:1" /><text x="976" y="3330" font-size="8" style="fill:white">La iglesia de Santa María del Naranco fue mandada a construir en el siglo IX por el rey Ramiro I, para ser usada como palacio de recreo y no fue hasta el siglo XII cuando se transformó en iglesia, ya que la que había junto a él, perdió parte de su estructura al derrumbarse.</text><rect x="900" y="3370" width="200" height="40" style="fill:white;stroke:black;stroke-width:1" /><text x="910" y="3380" font-size="10" style="fill:blue">coordenadas</text><path d="M880 3340 C900 3340 880 3390 900 3390" style="fill:transparent;stroke:black" /><rect x="966" y="3370" width="137" height="40" style="fill:green;stroke:black;stroke-width:1" /><text x="976" y="3380" font-size="8" style="fill:white"> 43.2245, 5.5157, 634.0</text><rect x="900" y="3420" width="200" height="40" style="fill:white;stroke:black;stroke-width:1" /><text x="910" y="3430" font-size="10" style="fill:blue">distanciaRecorrida</text><path d="M880 3340 C900 3340 880 3440 900 3440" style="fill:transparent;stroke:black" /><text x="910" y="3440" font-size="8" style="fill:black">unidad: metros</text><rect x="966" y="3420" width="137" height="40" style="fill:green;stroke:black;stroke-width:1" /><text x="976" y="3430" font-size="8" style="fill:white">3500</text><rect x="900" y="3470" width="200" height="40" style="fill:white;stroke:black;stroke-width:1" /><text x="910" y="3480" font-size="10" style="fill:blue">fotos</text><path d="M880 3340 C900 3340 880 3490 900 3490" style="fill:transparent;stroke:black" /><rect x="1120" y="3470" width="200" height="40" style="fill:white;stroke:black;stroke-width:1" /><text x="1130" y="3480" font-size="10" style="fill:blue">foto</text><path d="M1100 3490 C1120 3490 1100 3490 1120 3490" style="fill:transparent;stroke:black" /><text x="1130" y="3490" font-size="8" style="fill:black">src: multimedia/santamaria.jpg</text><rect x="900" y="3570" width="200" height="40" style="fill:white;stroke:black;stroke-width:1" /><text x="910" y="3580" font-size="10" style="fill:blue">videos</text><path d="M880 3340 C900 3340 880 3590 900 3590" style="fill:transparent;stroke:black" /><rect x="1120" y="3570" width="200" height="40" style="fill:white;stroke:black;stroke-width:1" /><text x="1130" y="3580" font-size="10" style="fill:blue">video</text><path d="M1100 3590 C1120 3590 1100 3590 1120 3590" style="fill:transparent;stroke:black" /><text x="1130" y="3590" font-size="8" style="fill:black">src: https://youtu.be/M9oqaj7J_bE</text><rect x="240" y="3820" width="200" height="40" style="fill:white;stroke:black;stroke-width:1" /><text x="250" y="3830" font-size="10" style="fill:blue">ruta</text><path d="M220 40 C240 40 220 3840 240 3840" style="fill:transparent;stroke:black" /><text x="250" y="3840" font-size="8" style="fill:black">nombre: Senda Costa Norte</text><text x="250" y="3850" font-size="8" style="fill:black">tipo: Playas</text><text x="250" y="3860" font-size="8" style="fill:black">dificultad: media</text><rect x="460" y="3820" width="200" height="40" style="fill:white;stroke:black;stroke-width:1" /><text x="470" y="3830" font-size="10" style="fill:blue">tiempoDuracion</text><path d="M440 3840 C460 3840 440 3840 460 3840" style="fill:transparent;stroke:black" /><rect x="526" y="3820" width="137" height="40" style="fill:green;stroke:black;stroke-width:1" /><text x="536" y="3830" font-size="8" style="fill:white">PT5H</text><rect x="460" y="3870" width="200" height="40" style="fill:white;stroke:black;stroke-width:1" /><text x="470" y="3880" font-size="10" style="fill:blue">agencia</text><path d="M440 3840 C460 3840 440 3890 460 3890" style="fill:transparent;stroke:black" /><rect x="526" y="3870" width="137" height="40" style="fill:green;stroke:black;stroke-width:1" /><text x="536" y="3880" font-size="8" style="fill:white">Sin agencia</text><rect x="460" y="3920" width="200" height="40" style="fill:white;stroke:black;stroke-width:1" /><text x="470" y="3930" font-size="10" style="fill:blue">descripcion</text><path d="M440 3840 C460 3840 440 3940 460 3940" style="fill:transparent;stroke:black" /><rect x="526" y="3920" width="137" height="40" style="fill:green;stroke:black;stroke-width:1" /><text x="536" y="3930" font-size="8" style="fill:white">
        Esta es una ruta costera perfecta para disfrutar de las vistas en familia y también de las playas que nos encontraremos a lo largo del recorrido. Una ruta con constantes subidas y bajadas por los 17 km de recorrido total. También es posible hacerla en bicicleta, pero en algunas partes de la ruta nos encontraremos con tramos de escaleras por los que tendremos que bajarnos y seguir andando.
      </text><rect x="460" y="3970" width="200" height="40" style="fill:white;stroke:black;stroke-width:1" /><text x="470" y="3980" font-size="10" style="fill:blue">personasAdecuadas</text><path d="M440 3840 C460 3840 440 3990 460 3990" style="fill:transparent;stroke:black" /><rect x="526" y="3970" width="137" height="40" style="fill:green;stroke:black;stroke-width:1" /><text x="536" y="3980" font-size="8" style="fill:white">Todos los públicos</text><rect x="460" y="4020" width="200" height="40" style="fill:white;stroke:black;stroke-width:1" /><text x="470" y="4030" font-size="10" style="fill:blue">lugarInicio</text><path d="M440 3840 C460 3840 440 4040 460 4040" style="fill:transparent;stroke:black" /><rect x="526" y="4020" width="137" height="40" style="fill:green;stroke:black;stroke-width:1" /><text x="536" y="4030" font-size="8" style="fill:white">Playa de Arnao</text><rect x="460" y="4070" width="200" height="40" style="fill:white;stroke:black;stroke-width:1" /><text x="470" y="4080" font-size="10" style="fill:blue">direccionInicio</text><path d="M440 3840 C460 3840 440 4090 460 4090" style="fill:transparent;stroke:black" /><rect x="526" y="4070" width="137" height="40" style="fill:green;stroke:black;stroke-width:1" /><text x="536" y="4080" font-size="8" style="fill:white">Parking playa de Arnao</text><rect x="460" y="4120" width="200" height="40" style="fill:white;stroke:black;stroke-width:1" /><text x="470" y="4130" font-size="10" style="fill:blue">coordenadasInicio</text><path d="M440 3840 C460 3840 440 4140 460 4140" style="fill:transparent;stroke:black" /><rect x="526" y="4120" width="137" height="40" style="fill:green;stroke:black;stroke-width:1" /><text x="536" y="4130" font-size="8" style="fill:white">43.577520,-5.980806, 3.0</text><rect x="460" y="4170" width="200" height="40" style="fill:white;stroke:black;stroke-width:1" /><text x="470" y="4180" font-size="10" style="fill:blue">referencias</text><path d="M440 3840 C460 3840 440 4190 460 4190" style="fill:transparent;stroke:black" /><rect x="680" y="4170" width="200" height="40" style="fill:white;stroke:black;stroke-width:1" /><text x="690" y="4180" font-size="10" style="fill:blue">referencia</text><path d="M660 4190 C680 4190 660 4190 680 4190" style="fill:transparent;stroke:black" /><rect x="746" y="4170" width="137" height="40" style="fill:green;stroke:black;stroke-width:1" /><text x="756" y="4180" font-size="8" style="fill:white">https://www.elcomercio.es/rutas-senderismo-por-asturias/ruta-costera-arnao-san-juan-arena-20191129164436-nt.html</text><rect x="680" y="4220" width="200" height="40" style="fill:white;stroke:black;stroke-width:1" /><text x="690" y="4230" font-size="10" style="fill:blue">referencia</text><path d="M660 4190 C680 4190 660 4240 680 4240" style="fill:transparent;stroke:black" /><rect x="746" y="4220" width="137" height="40" style="fill:green;stroke:black;stroke-width:1" /><text x="756" y="4230" font-size="8" style="fill:white">https://www.turismoasturias.es/descubre/costa/playas/playon-de-bayas-sablon</text><rect x="680" y="4270" width="200" height="40" style="fill:white;stroke:black;stroke-width:1" /><text x="690" y="4280" font-size="10" style="fill:blue">referencia</text><path d="M660 4190 C680 4190 660 4290 680 4290" style="fill:transparent;stroke:black" /><rect x="746" y="4270" width="137" height="40" style="fill:green;stroke:black;stroke-width:1" /><text x="756" y="4280" font-size="8" style="fill:white">https://www.avilescomarca.info/rutas-y-paseos/senda-litoral-costa-norte-arnao-bayas/</text><rect x="460" y="4370" width="200" height="40" style="fill:white;stroke:black;stroke-width:1" /><text x="470" y="4380" font-size="10" style="fill:blue">recomendacion</text><path d="M440 3840 C460 3840 440 4390 460 4390" style="fill:transparent;stroke:black" /><rect x="526" y="4370" width="137" height="40" style="fill:green;stroke:black;stroke-width:1" /><text x="536" y="4380" font-size="8" style="fill:white">8</text><rect x="460" y="4420" width="200" height="40" style="fill:white;stroke:black;stroke-width:1" /><text x="470" y="4430" font-size="10" style="fill:blue">hitos</text><path d="M440 3840 C460 3840 440 4440 460 4440" style="fill:transparent;stroke:black" /><rect x="680" y="4420" width="200" height="40" style="fill:white;stroke:black;stroke-width:1" /><text x="690" y="4430" font-size="10" style="fill:blue">hito</text><path d="M660 4440 C680 4440 660 4440 680 4440" style="fill:transparent;stroke:black" /><text x="690" y="4440" font-size="8" style="fill:black">nombre: Playa de Munielles</text><rect x="900" y="4420" width="200" height="40" style="fill:white;stroke:black;stroke-width:1" /><text x="910" y="4430" font-size="10" style="fill:blue">descripcionH</text><path d="M880 4440 C900 4440 880 4440 900 4440" style="fill:transparent;stroke:black" /><rect x="966" y="4420" width="137" height="40" style="fill:green;stroke:black;stroke-width:1" /><text x="976" y="4430" font-size="8" style="fill:white">Una pequeña pero muy bella playa, de apenas 200 metros de longitud, de arena oscura y bolos y con un fuerte oleaje.</text><rect x="900" y="4470" width="200" height="40" style="fill:white;stroke:black;stroke-width:1" /><text x="910" y="4480" font-size="10" style="fill:blue">coordenadas</text><path d="M880 4440 C900 4440 880 4490 900 4490" style="fill:transparent;stroke:black" /><rect x="966" y="4470" width="137" height="40" style="fill:green;stroke:black;stroke-width:1" /><text x="976" y="4480" font-size="8" style="fill:white"> 43.579551,-6.012139, 5.0 </text><rect x="900" y="4520" width="200" height="40" style="fill:white;stroke:black;stroke-width:1" /><text x="910" y="4530" font-size="10" style="fill:blue">distanciaRecorrida</text><path d="M880 4440 C900 4440 880 4540 900 4540" style="fill:transparent;stroke:black" /><text x="910" y="4540" font-size="8" style="fill:black">unidad: metros</text><rect x="966" y="4520" width="137" height="40" style="fill:green;stroke:black;stroke-width:1" /><text x="976" y="4530" font-size="8" style="fill:white">2530</text><rect x="900" y="4570" width="200" height="40" style="fill:white;stroke:black;stroke-width:1" /><text x="910" y="4580" font-size="10" style="fill:blue">fotos</text><path d="M880 4440 C900 4440 880 4590 900 4590" style="fill:transparent;stroke:black" /><rect x="1120" y="4570" width="200" height="40" style="fill:white;stroke:black;stroke-width:1" /><text x="1130" y="4580" font-size="10" style="fill:blue">foto</text><path d="M1100 4590 C1120 4590 1100 4590 1120 4590" style="fill:transparent;stroke:black" /><text x="1130" y="4590" font-size="8" style="fill:black">src: multimedia/munielles.jpg</text><rect x="680" y="4720" width="200" height="40" style="fill:white;stroke:black;stroke-width:1" /><text x="690" y="4730" font-size="10" style="fill:blue">hito</text><path d="M660 4440 C680 4440 660 4740 680 4740" style="fill:transparent;stroke:black" /><text x="690" y="4740" font-size="8" style="fill:black">nombre: Mirador de la Deva</text><rect x="900" y="4720" width="200" height="40" style="fill:white;stroke:black;stroke-width:1" /><text x="910" y="4730" font-size="10" style="fill:blue">descripcionH</text><path d="M880 4740 C900 4740 880 4740 900 4740" style="fill:transparent;stroke:black" /><rect x="966" y="4720" width="137" height="40" style="fill:green;stroke:black;stroke-width:1" /><text x="976" y="4730" font-size="8" style="fill:white">Desde él podremos observar la isla de La Deva, un espacio protegido y declarado monumento natural y la mayor de las islas del litoral asturiano. </text><rect x="900" y="4770" width="200" height="40" style="fill:white;stroke:black;stroke-width:1" /><text x="910" y="4780" font-size="10" style="fill:blue">coordenadas</text><path d="M880 4740 C900 4740 880 4790 900 4790" style="fill:transparent;stroke:black" /><rect x="966" y="4770" width="137" height="40" style="fill:green;stroke:black;stroke-width:1" /><text x="976" y="4780" font-size="8" style="fill:white">43.5901111, -6.03283333, 120.0</text><rect x="900" y="4820" width="200" height="40" style="fill:white;stroke:black;stroke-width:1" /><text x="910" y="4830" font-size="10" style="fill:blue">distanciaRecorrida</text><path d="M880 4740 C900 4740 880 4840 900 4840" style="fill:transparent;stroke:black" /><text x="910" y="4840" font-size="8" style="fill:black">unidad: metros</text><rect x="966" y="4820" width="137" height="40" style="fill:green;stroke:black;stroke-width:1" /><text x="976" y="4830" font-size="8" style="fill:white">9470</text><rect x="900" y="4870" width="200" height="40" style="fill:white;stroke:black;stroke-width:1" /><text x="910" y="4880" font-size="10" style="fill:blue">fotos</text><path d="M880 4740 C900 4740 880 4890 900 4890" style="fill:transparent;stroke:black" /><rect x="1120" y="4870" width="200" height="40" style="fill:white;stroke:black;stroke-width:1" /><text x="1130" y="4880" font-size="10" style="fill:blue">foto</text><path d="M1100 4890 C1120 4890 1100 4890 1120 4890" style="fill:transparent;stroke:black" /><text x="1130" y="4890" font-size="8" style="fill:black">src: multimedia/deva.jpg</text><rect x="680" y="5020" width="200" height="40" style="fill:white;stroke:black;stroke-width:1" /><text x="690" y="5030" font-size="10" style="fill:blue">hito</text><path d="M660 4440 C680 4440 660 5040 680 5040" style="fill:transparent;stroke:black" /><text x="690" y="5040" font-size="8" style="fill:black">nombre: Playón de Bayas</text><rect x="900" y="5020" width="200" height="40" style="fill:white;stroke:black;stroke-width:1" /><text x="910" y="5030" font-size="10" style="fill:blue">descripcionH</text><path d="M880 5040 C900 5040 880 5040 900 5040" style="fill:transparent;stroke:black" /><rect x="966" y="5020" width="137" height="40" style="fill:green;stroke:black;stroke-width:1" /><text x="976" y="5030" font-size="8" style="fill:white">Larga, de arenas doradas oscuras y fuerte oleaje. Así es el playón de Bayas o el Sablón, un bello arenal que se une con el de Los Quebrantos formando una extensa orilla, de más de 3 kilómetros, ideal para largos paseos.</text><rect x="900" y="5070" width="200" height="40" style="fill:white;stroke:black;stroke-width:1" /><text x="910" y="5080" font-size="10" style="fill:blue">coordenadas</text><path d="M880 5040 C900 5040 880 5090 900 5090" style="fill:transparent;stroke:black" /><rect x="966" y="5070" width="137" height="40" style="fill:green;stroke:black;stroke-width:1" /><text x="976" y="5080" font-size="8" style="fill:white">43.5821 , -6.0354, 11.0</text><rect x="900" y="5120" width="200" height="40" style="fill:white;stroke:black;stroke-width:1" /><text x="910" y="5130" font-size="10" style="fill:blue">distanciaRecorrida</text><path d="M880 5040 C900 5040 880 5140 900 5140" style="fill:transparent;stroke:black" /><text x="910" y="5140" font-size="8" style="fill:black">unidad: metros</text><rect x="966" y="5120" width="137" height="40" style="fill:green;stroke:black;stroke-width:1" /><text x="976" y="5130" font-size="8" style="fill:white">12400</text><rect x="900" y="5170" width="200" height="40" style="fill:white;stroke:black;stroke-width:1" /><text x="910" y="5180" font-size="10" style="fill:blue">fotos</text><path d="M880 5040 C900 5040 880 5190 900 5190" style="fill:transparent;stroke:black" /><rect x="1120" y="5170" width="200" height="40" style="fill:white;stroke:black;stroke-width:1" /><text x="1130" y="5180" font-size="10" style="fill:blue">foto</text><path d="M1100 5190 C1120 5190 1100 5190 1120 5190" style="fill:transparent;stroke:black" /><text x="1130" y="5190" font-size="8" style="fill:black">src: multimedia/playon.jpg</text><rect x="680" y="5320" width="200" height="40" style="fill:white;stroke:black;stroke-width:1" /><text x="690" y="5330" font-size="10" style="fill:blue">hito</text><path d="M660 4440 C680 4440 660 5340 680 5340" style="fill:transparent;stroke:black" /><text x="690" y="5340" font-size="8" style="fill:black">nombre: San Juan de la Arena</text><rect x="900" y="5320" width="200" height="40" style="fill:white;stroke:black;stroke-width:1" /><text x="910" y="5330" font-size="10" style="fill:blue">descripcionH</text><path d="M880 5340 C900 5340 880 5340 900 5340" style="fill:transparent;stroke:black" /><rect x="966" y="5320" width="137" height="40" style="fill:green;stroke:black;stroke-width:1" /><text x="976" y="5330" font-size="8" style="fill:white">La iglesia de Santa María del Naranco fue mandada a construir en el siglo IX por el rey Ramiro I, para ser usada como palacio de recreo y no fue hasta el siglo XII cuando se transformó en iglesia, ya que la que había junto a él, perdió parte de su estructura al derrumbarse.</text><rect x="900" y="5370" width="200" height="40" style="fill:white;stroke:black;stroke-width:1" /><text x="910" y="5380" font-size="10" style="fill:blue">coordenadas</text><path d="M880 5340 C900 5340 880 5390 900 5390" style="fill:transparent;stroke:black" /><rect x="966" y="5370" width="137" height="40" style="fill:green;stroke:black;stroke-width:1" /><text x="976" y="5380" font-size="8" style="fill:white"> 43.3324, -6.438, 20</text><rect x="900" y="5420" width="200" height="40" style="fill:white;stroke:black;stroke-width:1" /><text x="910" y="5430" font-size="10" style="fill:blue">distanciaRecorrida</text><path d="M880 5340 C900 5340 880 5440 900 5440" style="fill:transparent;stroke:black" /><text x="910" y="5440" font-size="8" style="fill:black">unidad: metros</text><rect x="966" y="5420" width="137" height="40" style="fill:green;stroke:black;stroke-width:1" /><text x="976" y="5430" font-size="8" style="fill:white">17690</text><rect x="900" y="5470" width="200" height="40" style="fill:white;stroke:black;stroke-width:1" /><text x="910" y="5480" font-size="10" style="fill:blue">fotos</text><path d="M880 5340 C900 5340 880 5490 900 5490" style="fill:transparent;stroke:black" /><rect x="1120" y="5470" width="200" height="40" style="fill:white;stroke:black;stroke-width:1" /><text x="1130" y="5480" font-size="10" style="fill:blue">foto</text><path d="M1100 5490 C1120 5490 1100 5490 1120 5490" style="fill:transparent;stroke:black" /><text x="1130" y="5490" font-size="8" style="fill:black">src: multimedia/sanjuan.jpg</text><rect x="900" y="5570" width="200" height="40" style="fill:white;stroke:black;stroke-width:1" /><text x="910" y="5580" font-size="10" style="fill:blue">videos</text><path d="M880 5340 C900 5340 880 5590 900 5590" style="fill:transparent;stroke:black" /><rect x="1120" y="5570" width="200" height="40" style="fill:white;stroke:black;stroke-width:1" /><text x="1130" y="5580" font-size="10" style="fill:blue">video</text><path d="M1100 5590 C1120 5590 1100 5590 1120 5590" style="fill:transparent;stroke:black" /><text x="1130" y="5590" font-size="8" style="fill:black">src: https://youtu.be/is_SH4ZCnco</text></svg>